<?xml version="1.0" standalone="no"?>
<!DOCTYPE svg PUBLIC "-//W3C//DTD SVG 20010904//EN"
 "http://www.w3.org/TR/2001/REC-SVG-20010904/DTD/svg10.dtd">
<svg version="1.0" xmlns="http://www.w3.org/2000/svg"
 width="224.000000pt" height="224.000000pt" viewBox="0 0 224.000000 224.000000"
 preserveAspectRatio="xMidYMid meet">
<metadata>
Created by potrace 1.16, written by Peter Selinger 2001-2019
</metadata>
<g transform="translate(0.000000,224.000000) scale(0.100000,-0.100000)"
fill="#000000" stroke="none">
<path d="M1155 2171 c-37 -16 -60 -51 -60 -93 0 -35 6 -46 38 -73 l37 -32 -2
-209 -3 -208 -29 -7 c-17 -5 -32 -6 -35 -3 -4 3 -8 53 -11 112 l-5 106 -30 7
c-16 4 -51 10 -77 14 -43 5 -48 9 -48 31 0 17 8 27 24 34 97 37 60 191 -44
181 -43 -4 -61 -14 -75 -41 -25 -49 -19 -88 19 -125 26 -24 35 -42 38 -71 3
-42 -1 -40 136 -60 l32 -5 0 -99 0 -100 -72 -70 -71 -71 -34 33 c-32 31 -33
35 -33 110 l0 78 -80 80 -80 80 -130 0 c-101 0 -130 3 -130 13 0 28 -50 62
-92 62 -33 0 -45 -6 -69 -33 -32 -36 -36 -69 -14 -111 31 -62 116 -64 163 -5
l27 34 108 0 109 0 69 -67 69 -66 0 -74 0 -74 50 -53 51 -54 -7 -64 c-8 -78
13 -161 58 -225 46 -68 80 -151 87 -212 l6 -56 35 0 35 0 3 125 c3 125 11 152
39 128 9 -7 13 -46 13 -134 l0 -124 35 0 35 0 0 124 c0 99 3 126 15 136 27 23
34 -2 37 -130 l3 -125 35 0 35 0 6 56 c7 61 41 144 87 212 65 93 78 227 32
317 -11 21 -20 45 -20 53 0 7 20 33 45 57 l45 44 0 73 0 72 67 66 66 65 114 0
114 0 33 -35 c42 -44 89 -48 135 -9 41 34 43 88 5 133 -22 26 -33 31 -70 31
-34 0 -51 -6 -69 -25 -14 -13 -25 -29 -25 -35 0 -6 -46 -10 -128 -10 l-128 0
-82 -84 -82 -84 0 -74 c0 -71 -1 -75 -33 -106 l-34 -33 -41 27 -42 28 0 111 0
111 70 58 c58 48 70 62 70 87 0 22 10 40 35 63 29 27 35 41 35 73 0 74 -65
120 -131 93 -32 -14 -59 -55 -59 -90 0 -25 27 -80 40 -80 15 0 40 -31 40 -50
0 -11 -30 -44 -75 -80 l-75 -61 0 -110 c0 -100 -2 -110 -17 -105 -10 2 -33 7
-50 11 l-33 7 0 205 0 206 37 32 c32 28 38 38 38 74 0 30 -7 47 -25 66 -28 27
-75 39 -105 26z"/>
<path d="M1610 1591 c0 -71 -9 -98 -49 -143 l-30 -34 20 -65 c39 -121 21 -198
-88 -388 -36 -62 -37 -67 -43 -198 -8 -145 -14 -163 -74 -207 -24 -18 -42 -21
-134 -21 -176 0 -212 34 -212 201 0 121 -15 178 -71 265 -71 108 -83 144 -84
242 l-1 87 -43 44 c-43 44 -44 46 -50 128 l-6 83 -36 -45 c-92 -113 -142 -268
-137 -425 l3 -100 -63 -118 c-35 -64 -62 -122 -60 -128 2 -6 42 -26 88 -44
l85 -32 3 -148 c1 -89 7 -154 14 -162 7 -9 44 -13 134 -13 l124 0 0 -84 c0
-59 4 -87 14 -95 9 -8 103 -11 322 -9 l309 3 3 200 3 200 56 40 c112 80 204
223 239 370 25 106 15 256 -23 360 -43 115 -115 223 -184 274 l-29 22 0 -60z"/>
<path d="M1040 708 c0 -44 29 -100 60 -115 14 -7 59 -13 100 -13 119 0 170 36
170 123 l0 37 -165 0 -165 0 0 -32z"/>
</g>
</svg>
